<svg xmlns="http://www.w3.org/2000/svg" viewBox="0 0 48 48" role="img" aria-label="Gmail">
  <path fill="#4caf50" d="M45 16.18v21.68c0 1.25-1.01 2.26-2.26 2.26H5.26C4.01 40.12 3 39.11 3 37.86V16.18l20.88 13.05L45 16.18z"/>
  <path fill="#1e88e5" d="M45 11.6V16.18L23.12 29.23 3 16.18V11.6c0-1.25 1.01-2.26 2.26-2.26h37.48c1.25 0 2.26 1.01 2.26 2.26z"/>
  <path fill="#e53935" d="M45 11.6 23.12 24.65 3 11.6V9.34c0-1.25 1.01-2.26 2.26-2.26h37.48c1.25 0 2.26 1.01 2.26 2.26V11.6z"/>
  <path fill="#c62828" d="M3 11.6 23.12 24.65 3 37.86V11.6z"/>
  <path fill="#fbc02d" d="M45 11.6 23.12 24.65 45 37.86V11.6z"/>
</svg>
