<svg xmlns="http://www.w3.org/2000/svg" viewBox="0 0 48 48" role="img" aria-label="Slack">
  <path fill="#36C5F0" d="M10.5 30.5a3.5 3.5 0 1 1 0-7H14v-3.5a3.5 3.5 0 1 1 7 0V23h3.5a3.5 3.5 0 1 1 0 7H21v3.5a3.5 3.5 0 1 1-7 0V30.5h-3.5z"/>
  <path fill="#2EB67D" d="M17.5 10.5a3.5 3.5 0 1 1 7 0V14h3.5a3.5 3.5 0 1 1 0 7H25v3.5a3.5 3.5 0 1 1-7 0V21h-3.5a3.5 3.5 0 1 1 0-7H17.5v-3.5z"/>
  <path fill="#ECB22E" d="M37.5 17.5a3.5 3.5 0 1 1 0 7H34v3.5a3.5 3.5 0 1 1-7 0V25h-3.5a3.5 3.5 0 1 1 0-7H27v-3.5a3.5 3.5 0 1 1 7 0V17.5h3.5z"/>
  <path fill="#E01E5A" d="M30.5 37.5a3.5 3.5 0 1 1-7 0V34h-3.5a3.5 3.5 0 1 1 0-7H27v-3.5a3.5 3.5 0 1 1 7 0V27h3.5a3.5 3.5 0 1 1 0 7H30.5v3.5z"/>
</svg>
